<mxfile host="app.diagrams.net" modified="2021-06-07T16:51:57.309Z" agent="5.0 (Windows NT 10.0; Win64; x64) AppleWebKit/537.36 (KHTML, like Gecko) Chrome/90.0.4430.212 Safari/537.36" etag="XwkK6EMNCSwOLzjVm1tS" version="14.7.6" type="github">
  <diagram id="NYds4OF2F6dZMDo00Igu" name="Page-1">
    <mxGraphModel dx="1038" dy="548" grid="1" gridSize="10" guides="1" tooltips="1" connect="1" arrows="1" fold="1" page="1" pageScale="1" pageWidth="827" pageHeight="1169" math="0" shadow="0">
      <root>
        <mxCell id="0" />
        <mxCell id="1" parent="0" />
        <mxCell id="r4Dl97WL2-O0kpGL2Dar-1" value="front-end" style="swimlane;fillColor=#d5e8d4;strokeColor=#82b366;" vertex="1" parent="1">
          <mxGeometry x="60" y="70" width="470" height="760" as="geometry" />
        </mxCell>
        <mxCell id="r4Dl97WL2-O0kpGL2Dar-2" style="edgeStyle=orthogonalEdgeStyle;rounded=0;orthogonalLoop=1;jettySize=auto;html=1;entryX=0;entryY=0.5;entryDx=0;entryDy=0;" edge="1" parent="r4Dl97WL2-O0kpGL2Dar-1" source="r4Dl97WL2-O0kpGL2Dar-3" target="r4Dl97WL2-O0kpGL2Dar-15">
          <mxGeometry relative="1" as="geometry">
            <Array as="points">
              <mxPoint x="150" y="80" />
              <mxPoint x="150" y="350" />
            </Array>
          </mxGeometry>
        </mxCell>
        <mxCell id="r4Dl97WL2-O0kpGL2Dar-3" value="會員中心" style="rounded=0;whiteSpace=wrap;html=1;" vertex="1" parent="r4Dl97WL2-O0kpGL2Dar-1">
          <mxGeometry x="20" y="50" width="120" height="60" as="geometry" />
        </mxCell>
        <mxCell id="r4Dl97WL2-O0kpGL2Dar-4" value="頭貼/主題" style="rounded=0;whiteSpace=wrap;html=1;" vertex="1" parent="r4Dl97WL2-O0kpGL2Dar-1">
          <mxGeometry x="180" y="50" width="120" height="60" as="geometry" />
        </mxCell>
        <mxCell id="r4Dl97WL2-O0kpGL2Dar-5" value="" style="endArrow=classic;html=1;exitX=1;exitY=0.5;exitDx=0;exitDy=0;entryX=0;entryY=0.5;entryDx=0;entryDy=0;" edge="1" parent="r4Dl97WL2-O0kpGL2Dar-1" source="r4Dl97WL2-O0kpGL2Dar-3" target="r4Dl97WL2-O0kpGL2Dar-4">
          <mxGeometry width="50" height="50" relative="1" as="geometry">
            <mxPoint x="440" y="230" as="sourcePoint" />
            <mxPoint x="490" y="180" as="targetPoint" />
          </mxGeometry>
        </mxCell>
        <mxCell id="r4Dl97WL2-O0kpGL2Dar-6" value="已上傳" style="rhombus;whiteSpace=wrap;html=1;" vertex="1" parent="r4Dl97WL2-O0kpGL2Dar-1">
          <mxGeometry x="350" y="40" width="80" height="80" as="geometry" />
        </mxCell>
        <mxCell id="r4Dl97WL2-O0kpGL2Dar-7" value="" style="endArrow=classic;html=1;exitX=1;exitY=0.5;exitDx=0;exitDy=0;entryX=0;entryY=0.5;entryDx=0;entryDy=0;" edge="1" parent="r4Dl97WL2-O0kpGL2Dar-1" source="r4Dl97WL2-O0kpGL2Dar-4" target="r4Dl97WL2-O0kpGL2Dar-6">
          <mxGeometry width="50" height="50" relative="1" as="geometry">
            <mxPoint x="440" y="230" as="sourcePoint" />
            <mxPoint x="490" y="180" as="targetPoint" />
          </mxGeometry>
        </mxCell>
        <mxCell id="r4Dl97WL2-O0kpGL2Dar-8" value="上傳圖片" style="rounded=0;whiteSpace=wrap;html=1;" vertex="1" parent="r4Dl97WL2-O0kpGL2Dar-1">
          <mxGeometry x="500" y="50" width="120" height="60" as="geometry" />
        </mxCell>
        <mxCell id="r4Dl97WL2-O0kpGL2Dar-9" value="" style="endArrow=classic;html=1;exitX=1;exitY=0.5;exitDx=0;exitDy=0;entryX=0;entryY=0.5;entryDx=0;entryDy=0;" edge="1" parent="r4Dl97WL2-O0kpGL2Dar-1" source="r4Dl97WL2-O0kpGL2Dar-6" target="r4Dl97WL2-O0kpGL2Dar-8">
          <mxGeometry width="50" height="50" relative="1" as="geometry">
            <mxPoint x="440" y="230" as="sourcePoint" />
            <mxPoint x="490" y="180" as="targetPoint" />
          </mxGeometry>
        </mxCell>
        <mxCell id="r4Dl97WL2-O0kpGL2Dar-10" value="否" style="text;strokeColor=none;fillColor=none;align=left;verticalAlign=top;spacingLeft=4;spacingRight=4;overflow=hidden;rotatable=0;points=[[0,0.5],[1,0.5]];portConstraint=eastwest;" vertex="1" parent="r4Dl97WL2-O0kpGL2Dar-1">
          <mxGeometry x="430" y="50" width="60" height="26" as="geometry" />
        </mxCell>
        <mxCell id="r4Dl97WL2-O0kpGL2Dar-11" value="刪除圖片" style="rounded=0;whiteSpace=wrap;html=1;" vertex="1" parent="r4Dl97WL2-O0kpGL2Dar-1">
          <mxGeometry x="500" y="130" width="120" height="60" as="geometry" />
        </mxCell>
        <mxCell id="r4Dl97WL2-O0kpGL2Dar-12" value="" style="endArrow=classic;html=1;entryX=0;entryY=0.5;entryDx=0;entryDy=0;exitX=0.5;exitY=1;exitDx=0;exitDy=0;" edge="1" parent="r4Dl97WL2-O0kpGL2Dar-1" source="r4Dl97WL2-O0kpGL2Dar-6" target="r4Dl97WL2-O0kpGL2Dar-11">
          <mxGeometry width="50" height="50" relative="1" as="geometry">
            <mxPoint x="440" y="230" as="sourcePoint" />
            <mxPoint x="490" y="180" as="targetPoint" />
            <Array as="points">
              <mxPoint x="390" y="160" />
            </Array>
          </mxGeometry>
        </mxCell>
        <mxCell id="r4Dl97WL2-O0kpGL2Dar-13" value="是" style="text;strokeColor=none;fillColor=none;align=left;verticalAlign=top;spacingLeft=4;spacingRight=4;overflow=hidden;rotatable=0;points=[[0,0.5],[1,0.5]];portConstraint=eastwest;" vertex="1" parent="r4Dl97WL2-O0kpGL2Dar-1">
          <mxGeometry x="390" y="120" width="60" height="26" as="geometry" />
        </mxCell>
        <mxCell id="r4Dl97WL2-O0kpGL2Dar-47" style="edgeStyle=orthogonalEdgeStyle;rounded=0;orthogonalLoop=1;jettySize=auto;html=1;exitX=1;exitY=0.5;exitDx=0;exitDy=0;entryX=0;entryY=0.5;entryDx=0;entryDy=0;" edge="1" parent="r4Dl97WL2-O0kpGL2Dar-1" source="r4Dl97WL2-O0kpGL2Dar-15" target="r4Dl97WL2-O0kpGL2Dar-46">
          <mxGeometry relative="1" as="geometry" />
        </mxCell>
        <mxCell id="r4Dl97WL2-O0kpGL2Dar-15" value="介紹自己" style="rounded=0;whiteSpace=wrap;html=1;" vertex="1" parent="r4Dl97WL2-O0kpGL2Dar-1">
          <mxGeometry x="180" y="320" width="120" height="60" as="geometry" />
        </mxCell>
        <mxCell id="r4Dl97WL2-O0kpGL2Dar-16" value="基本資料填寫" style="rounded=0;whiteSpace=wrap;html=1;" vertex="1" parent="r4Dl97WL2-O0kpGL2Dar-1">
          <mxGeometry x="180" y="420" width="120" height="60" as="geometry" />
        </mxCell>
        <mxCell id="r4Dl97WL2-O0kpGL2Dar-17" value="分享個人頁面" style="rounded=0;whiteSpace=wrap;html=1;" vertex="1" parent="r4Dl97WL2-O0kpGL2Dar-1">
          <mxGeometry x="180" y="500" width="120" height="60" as="geometry" />
        </mxCell>
        <mxCell id="r4Dl97WL2-O0kpGL2Dar-18" value="我的課" style="rounded=0;whiteSpace=wrap;html=1;" vertex="1" parent="r4Dl97WL2-O0kpGL2Dar-1">
          <mxGeometry x="180" y="580" width="120" height="60" as="geometry" />
        </mxCell>
        <mxCell id="r4Dl97WL2-O0kpGL2Dar-20" value="預覽我的檔案" style="rounded=0;whiteSpace=wrap;html=1;" vertex="1" parent="r4Dl97WL2-O0kpGL2Dar-1">
          <mxGeometry x="180" y="660" width="120" height="60" as="geometry" />
        </mxCell>
        <mxCell id="r4Dl97WL2-O0kpGL2Dar-26" value="確認" style="rounded=0;whiteSpace=wrap;html=1;" vertex="1" parent="r4Dl97WL2-O0kpGL2Dar-1">
          <mxGeometry x="330" y="420" width="120" height="60" as="geometry" />
        </mxCell>
        <mxCell id="r4Dl97WL2-O0kpGL2Dar-27" style="edgeStyle=orthogonalEdgeStyle;rounded=0;orthogonalLoop=1;jettySize=auto;html=1;exitX=1;exitY=0.5;exitDx=0;exitDy=0;entryX=0;entryY=0.5;entryDx=0;entryDy=0;" edge="1" parent="r4Dl97WL2-O0kpGL2Dar-1" source="r4Dl97WL2-O0kpGL2Dar-16" target="r4Dl97WL2-O0kpGL2Dar-26">
          <mxGeometry relative="1" as="geometry" />
        </mxCell>
        <mxCell id="r4Dl97WL2-O0kpGL2Dar-28" style="edgeStyle=orthogonalEdgeStyle;rounded=0;orthogonalLoop=1;jettySize=auto;html=1;exitX=0;exitY=0.5;exitDx=0;exitDy=0;entryX=0.5;entryY=1;entryDx=0;entryDy=0;" edge="1" parent="r4Dl97WL2-O0kpGL2Dar-1" source="r4Dl97WL2-O0kpGL2Dar-29" target="r4Dl97WL2-O0kpGL2Dar-3">
          <mxGeometry relative="1" as="geometry" />
        </mxCell>
        <mxCell id="r4Dl97WL2-O0kpGL2Dar-29" value="頁面內容改變" style="rounded=0;whiteSpace=wrap;html=1;" vertex="1" parent="r4Dl97WL2-O0kpGL2Dar-1">
          <mxGeometry x="300" y="200" width="120" height="60" as="geometry" />
        </mxCell>
        <mxCell id="r4Dl97WL2-O0kpGL2Dar-46" value="編輯文字內容" style="rounded=0;whiteSpace=wrap;html=1;" vertex="1" parent="r4Dl97WL2-O0kpGL2Dar-1">
          <mxGeometry x="330" y="320" width="120" height="60" as="geometry" />
        </mxCell>
        <mxCell id="r4Dl97WL2-O0kpGL2Dar-30" style="edgeStyle=orthogonalEdgeStyle;rounded=0;orthogonalLoop=1;jettySize=auto;html=1;exitX=1;exitY=0.5;exitDx=0;exitDy=0;entryX=1;entryY=0.5;entryDx=0;entryDy=0;" edge="1" parent="1" source="r4Dl97WL2-O0kpGL2Dar-31" target="r4Dl97WL2-O0kpGL2Dar-29">
          <mxGeometry relative="1" as="geometry">
            <Array as="points">
              <mxPoint x="940" y="150" />
              <mxPoint x="940" y="300" />
            </Array>
          </mxGeometry>
        </mxCell>
        <mxCell id="r4Dl97WL2-O0kpGL2Dar-31" value="會員資料庫" style="rounded=0;whiteSpace=wrap;html=1;" vertex="1" parent="1">
          <mxGeometry x="800" y="120" width="120" height="60" as="geometry" />
        </mxCell>
        <mxCell id="r4Dl97WL2-O0kpGL2Dar-32" value="" style="endArrow=classic;html=1;entryX=0;entryY=0.5;entryDx=0;entryDy=0;exitX=1;exitY=0.5;exitDx=0;exitDy=0;" edge="1" parent="1" source="r4Dl97WL2-O0kpGL2Dar-8" target="r4Dl97WL2-O0kpGL2Dar-31">
          <mxGeometry width="50" height="50" relative="1" as="geometry">
            <mxPoint x="500" y="300" as="sourcePoint" />
            <mxPoint x="550" y="250" as="targetPoint" />
          </mxGeometry>
        </mxCell>
        <mxCell id="r4Dl97WL2-O0kpGL2Dar-35" style="edgeStyle=orthogonalEdgeStyle;rounded=0;orthogonalLoop=1;jettySize=auto;html=1;exitX=1;exitY=0.5;exitDx=0;exitDy=0;" edge="1" parent="1" source="r4Dl97WL2-O0kpGL2Dar-26">
          <mxGeometry relative="1" as="geometry">
            <mxPoint x="760" y="210" as="targetPoint" />
          </mxGeometry>
        </mxCell>
        <mxCell id="r4Dl97WL2-O0kpGL2Dar-37" style="edgeStyle=orthogonalEdgeStyle;rounded=0;orthogonalLoop=1;jettySize=auto;html=1;" edge="1" parent="1" source="r4Dl97WL2-O0kpGL2Dar-11">
          <mxGeometry relative="1" as="geometry">
            <mxPoint x="760" y="150" as="targetPoint" />
          </mxGeometry>
        </mxCell>
        <mxCell id="r4Dl97WL2-O0kpGL2Dar-38" style="edgeStyle=orthogonalEdgeStyle;rounded=0;orthogonalLoop=1;jettySize=auto;html=1;entryX=0;entryY=0.5;entryDx=0;entryDy=0;" edge="1" parent="1">
          <mxGeometry relative="1" as="geometry">
            <mxPoint x="210" y="270" as="sourcePoint" />
            <mxPoint x="240" y="520" as="targetPoint" />
            <Array as="points">
              <mxPoint x="210" y="280" />
              <mxPoint x="210" y="520" />
            </Array>
          </mxGeometry>
        </mxCell>
        <mxCell id="r4Dl97WL2-O0kpGL2Dar-39" style="edgeStyle=orthogonalEdgeStyle;rounded=0;orthogonalLoop=1;jettySize=auto;html=1;entryX=0;entryY=0.5;entryDx=0;entryDy=0;" edge="1" parent="1">
          <mxGeometry relative="1" as="geometry">
            <mxPoint x="210" y="350" as="sourcePoint" />
            <mxPoint x="240" y="600" as="targetPoint" />
            <Array as="points">
              <mxPoint x="210" y="600" />
            </Array>
          </mxGeometry>
        </mxCell>
        <mxCell id="r4Dl97WL2-O0kpGL2Dar-40" style="edgeStyle=orthogonalEdgeStyle;rounded=0;orthogonalLoop=1;jettySize=auto;html=1;entryX=0;entryY=0.5;entryDx=0;entryDy=0;" edge="1" parent="1">
          <mxGeometry relative="1" as="geometry">
            <mxPoint x="210" y="430" as="sourcePoint" />
            <mxPoint x="240" y="680" as="targetPoint" />
            <Array as="points">
              <mxPoint x="210" y="440" />
              <mxPoint x="210" y="680" />
            </Array>
          </mxGeometry>
        </mxCell>
        <mxCell id="r4Dl97WL2-O0kpGL2Dar-41" style="edgeStyle=orthogonalEdgeStyle;rounded=0;orthogonalLoop=1;jettySize=auto;html=1;entryX=0;entryY=0.5;entryDx=0;entryDy=0;" edge="1" parent="1">
          <mxGeometry relative="1" as="geometry">
            <mxPoint x="210" y="510" as="sourcePoint" />
            <mxPoint x="240" y="760" as="targetPoint" />
            <Array as="points">
              <mxPoint x="210" y="520" />
              <mxPoint x="210" y="760" />
            </Array>
          </mxGeometry>
        </mxCell>
        <mxCell id="r4Dl97WL2-O0kpGL2Dar-44" value="back-end" style="swimlane;fillColor=#d5e8d4;strokeColor=#82b366;" vertex="1" parent="1">
          <mxGeometry x="530" y="70" width="190" height="760" as="geometry" />
        </mxCell>
        <mxCell id="r4Dl97WL2-O0kpGL2Dar-49" value="第三方分享" style="rounded=0;whiteSpace=wrap;html=1;" vertex="1" parent="r4Dl97WL2-O0kpGL2Dar-44">
          <mxGeometry x="30" y="500" width="120" height="60" as="geometry" />
        </mxCell>
        <mxCell id="r4Dl97WL2-O0kpGL2Dar-45" value="DB" style="swimlane;fillColor=#d5e8d4;strokeColor=#82b366;" vertex="1" parent="1">
          <mxGeometry x="720" y="70" width="260" height="760" as="geometry">
            <mxRectangle x="720" y="70" width="50" height="23" as="alternateBounds" />
          </mxGeometry>
        </mxCell>
        <mxCell id="r4Dl97WL2-O0kpGL2Dar-48" style="edgeStyle=orthogonalEdgeStyle;rounded=0;orthogonalLoop=1;jettySize=auto;html=1;" edge="1" parent="1" source="r4Dl97WL2-O0kpGL2Dar-46">
          <mxGeometry relative="1" as="geometry">
            <mxPoint x="760" y="330" as="targetPoint" />
          </mxGeometry>
        </mxCell>
        <mxCell id="r4Dl97WL2-O0kpGL2Dar-50" style="edgeStyle=orthogonalEdgeStyle;rounded=0;orthogonalLoop=1;jettySize=auto;html=1;exitX=1;exitY=0.5;exitDx=0;exitDy=0;entryX=0;entryY=0.5;entryDx=0;entryDy=0;" edge="1" parent="1" source="r4Dl97WL2-O0kpGL2Dar-17" target="r4Dl97WL2-O0kpGL2Dar-49">
          <mxGeometry relative="1" as="geometry" />
        </mxCell>
        <mxCell id="r4Dl97WL2-O0kpGL2Dar-54" value="" style="endArrow=classic;startArrow=classic;html=1;exitX=1;exitY=0.5;exitDx=0;exitDy=0;" edge="1" parent="1" source="r4Dl97WL2-O0kpGL2Dar-18">
          <mxGeometry width="50" height="50" relative="1" as="geometry">
            <mxPoint x="600" y="400" as="sourcePoint" />
            <mxPoint x="860" y="180" as="targetPoint" />
            <Array as="points">
              <mxPoint x="860" y="680" />
            </Array>
          </mxGeometry>
        </mxCell>
        <mxCell id="r4Dl97WL2-O0kpGL2Dar-55" value="" style="endArrow=classic;html=1;entryX=1;entryY=0.5;entryDx=0;entryDy=0;" edge="1" parent="1" target="r4Dl97WL2-O0kpGL2Dar-20">
          <mxGeometry width="50" height="50" relative="1" as="geometry">
            <mxPoint x="860" y="660" as="sourcePoint" />
            <mxPoint x="650" y="550" as="targetPoint" />
            <Array as="points">
              <mxPoint x="860" y="760" />
            </Array>
          </mxGeometry>
        </mxCell>
      </root>
    </mxGraphModel>
  </diagram>
</mxfile>
